<?xml version="1.0" encoding="UTF-8"?>
<svg width="56px" height="56px" viewBox="0 0 56 56" version="1.1" xmlns="http://www.w3.org/2000/svg" xmlns:xlink="http://www.w3.org/1999/xlink">
    <title>/svg/ic_contact_us_social_media_whatsapp</title>
    <g id="ic_contact_us_social_media_whatsapp" stroke="none" stroke-width="1" fill="none" fill-rule="evenodd">
        <circle id="Oval" fill="#FFCC00" cx="28" cy="28" r="22"></circle>
        <g id="whatsapp" transform="translate(16.109162, 16.000000)" fill="#000000" fill-rule="nonzero">
            <path d="M17.507,14.353875 L17.498,14.428875 C15.299,13.332875 15.069,13.186875 14.785,13.612875 C14.588,13.907875 14.014,14.576875 13.841,14.774875 C13.666,14.969875 13.492,14.984875 13.195,14.849875 C12.895,14.699875 11.932,14.384875 10.792,13.364875 C9.904,12.569875 9.308,11.594875 9.132,11.294875 C8.839,10.788875 9.452,10.716875 10.01,9.660875 C10.11,9.450875 10.059,9.285875 9.985,9.136875 C9.91,8.986875 9.313,7.516875 9.063,6.930875 C8.823,6.346875 8.576,6.420875 8.391,6.420875 C7.815,6.370875 7.394,6.378875 7.023,6.764875 C5.409,8.538875 5.816,10.368875 7.197,12.314875 C9.911,15.866875 11.357,16.520875 14.001,17.428875 C14.715,17.655875 15.366,17.623875 15.881,17.549875 C16.455,17.458875 17.648,16.828875 17.897,16.123875 C18.152,15.418875 18.152,14.833875 18.077,14.698875 C18.003,14.563875 17.807,14.488875 17.507,14.353875 L17.507,14.353875 Z" id="Path"></path>
            <path d="M20.52,3.495875 C12.831,-3.937125 0.106,1.453875 0.101,11.939875 C0.101,14.035875 0.65,16.079875 1.696,17.884875 L-1.33226763e-15,24.046875 L6.335,22.394875 C14.24,26.664875 23.996,20.994875 24,11.945875 C24,8.769875 22.76,5.780875 20.505,3.534875 L20.52,3.495875 Z M22.002,11.912875 C21.996,19.545875 13.617,24.312875 6.99,20.416875 L6.63,20.202875 L2.88,21.177875 L3.885,17.532875 L3.646,17.157875 C-0.478,10.592875 4.26,2.012875 12.072,2.012875 C14.726,2.012875 17.217,3.047875 19.093,4.922875 C20.968,6.781875 22.002,9.272875 22.002,11.912875 Z" id="Shape"></path>
        </g>
    </g>
</svg>