<?xml version="1.0" encoding="UTF-8"?>
<svg width="56px" height="56px" viewBox="0 0 56 56" version="1.1" xmlns="http://www.w3.org/2000/svg" xmlns:xlink="http://www.w3.org/1999/xlink">
    <title>/svg/ic_contact_us_social_media_twitter</title>
    <g id="ic_contact_us_social_media_twitter" stroke="none" stroke-width="1" fill="none" fill-rule="evenodd">
        <circle id="Oval" fill="#FFCC00" cx="28" cy="28" r="22"></circle>
        <g id="twitter" transform="translate(15.000000, 17.000000)" fill="#000000" fill-rule="nonzero">
            <path d="M8.17697331,21.1294503 C17.9849863,21.1294503 23.3485671,13.0036556 23.3485671,5.95769757 C23.3485671,5.72691706 23.3437989,5.49709016 23.3334678,5.26853482 C24.3745232,4.51579617 25.2793672,3.57646227 25.9933246,2.50727456 C25.0379377,2.9321205 24.0095975,3.21773522 22.9311913,3.34695323 C24.032008,2.6865586 24.8772496,1.64232442 25.2758705,0.397508304 C24.245623,1.00831377 23.1045946,1.45207355 21.889977,1.69175469 C20.9169479,0.655308598 19.5314701,0.00715227856 17.9975426,0.00715227856 C15.0530247,0.00715227856 12.664955,2.39506308 12.664955,5.33862724 C12.664955,5.75727456 12.7118422,6.16416032 12.8032326,6.55451634 C8.37151556,6.33152387 4.44157129,4.20983716 1.81191315,0.983360241 C1.35416667,1.77122457 1.09000878,2.68671753 1.09000878,3.66356121 C1.09000878,5.51330203 2.03140893,7.14672583 3.46282033,8.10195375 C2.58801595,8.07509294 1.76629743,7.83493497 1.04788976,7.43520149 C1.04709507,7.45761198 1.04709507,7.47938672 1.04709507,7.5032277 C1.04709507,10.0856808 2.88507433,12.2418574 5.3252763,12.7304382 C4.87706621,12.852345 4.405492,12.9179871 3.91913633,12.9179871 C3.57614437,12.9179871 3.24173513,12.8842919 2.91686228,12.8218286 C3.59569397,14.9404954 5.56432168,16.482211 7.89819297,16.5254426 C6.07308781,17.9559003 3.77402434,18.8079764 1.27533255,18.8079764 C0.845559468,18.8079764 0.420713527,18.7833407 0.00333773271,18.7340693 C2.36327513,20.2466989 5.16554186,21.1294503 8.17713224,21.1294503" id="Path"></path>
        </g>
    </g>
</svg>